<mxfile host="drawio-plugin" modified="2024-05-25T08:15:16.237Z" agent="Mozilla/5.0 (X11; Linux x86_64) AppleWebKit/537.36 (KHTML, like Gecko) Chrome/122.0.0.0 Safari/537.36" etag="2iGN71rzwMfPbsVr9hHW" version="22.1.22" type="embed">
  <diagram id="EhChE-45HuIZkj6PtDuR" name="Page-1">
    <mxGraphModel dx="1352" dy="773" grid="1" gridSize="10" guides="1" tooltips="1" connect="1" arrows="1" fold="1" page="1" pageScale="1" pageWidth="1169" pageHeight="827" math="0" shadow="0">
      <root>
        <mxCell id="0" />
        <mxCell id="1" parent="0" />
        <mxCell id="lmeQF-V1sz2n1K19VX6t-9" value="Localhost" style="swimlane;" parent="1" vertex="1">
          <mxGeometry x="60" y="39" width="1040" height="781" as="geometry">
            <mxRectangle x="60" y="39" width="100" height="30" as="alternateBounds" />
          </mxGeometry>
        </mxCell>
        <mxCell id="lmeQF-V1sz2n1K19VX6t-10" value="Architecture" style="swimlane;" parent="lmeQF-V1sz2n1K19VX6t-9" vertex="1">
          <mxGeometry x="560" y="48" width="450" height="712" as="geometry" />
        </mxCell>
        <mxCell id="go-DFvzO8IEFyl5RMDaZ-6" value="./config/" style="text;html=1;align=left;verticalAlign=middle;resizable=0;points=[];autosize=1;strokeColor=none;fillColor=none;fontSize=15;" parent="lmeQF-V1sz2n1K19VX6t-10" vertex="1">
          <mxGeometry x="20" y="44" width="80" height="30" as="geometry" />
        </mxCell>
        <mxCell id="go-DFvzO8IEFyl5RMDaZ-7" value="schema/" style="text;html=1;align=left;verticalAlign=middle;resizable=0;points=[];autosize=1;strokeColor=none;fillColor=none;fontSize=15;" parent="lmeQF-V1sz2n1K19VX6t-10" vertex="1">
          <mxGeometry x="80" y="111" width="80" height="30" as="geometry" />
        </mxCell>
        <mxCell id="go-DFvzO8IEFyl5RMDaZ-8" style="edgeStyle=orthogonalEdgeStyle;rounded=0;orthogonalLoop=1;jettySize=auto;html=1;entryX=-0.012;entryY=0.533;entryDx=0;entryDy=0;entryPerimeter=0;" parent="lmeQF-V1sz2n1K19VX6t-10" source="go-DFvzO8IEFyl5RMDaZ-6" target="go-DFvzO8IEFyl5RMDaZ-7" edge="1">
          <mxGeometry relative="1" as="geometry" />
        </mxCell>
        <mxCell id="go-DFvzO8IEFyl5RMDaZ-17" value="mongo/" style="text;html=1;align=left;verticalAlign=middle;resizable=0;points=[];autosize=1;strokeColor=none;fillColor=none;fontSize=15;" parent="lmeQF-V1sz2n1K19VX6t-10" vertex="1">
          <mxGeometry x="140" y="150" width="70" height="30" as="geometry" />
        </mxCell>
        <mxCell id="go-DFvzO8IEFyl5RMDaZ-18" style="edgeStyle=orthogonalEdgeStyle;rounded=0;orthogonalLoop=1;jettySize=auto;html=1;entryX=-0.014;entryY=0.567;entryDx=0;entryDy=0;entryPerimeter=0;" parent="lmeQF-V1sz2n1K19VX6t-10" source="go-DFvzO8IEFyl5RMDaZ-7" target="go-DFvzO8IEFyl5RMDaZ-17" edge="1">
          <mxGeometry relative="1" as="geometry" />
        </mxCell>
        <mxCell id="go-DFvzO8IEFyl5RMDaZ-19" value="createCollection.js" style="text;html=1;align=left;verticalAlign=middle;resizable=0;points=[];autosize=1;strokeColor=none;fillColor=none;fontSize=15;" parent="lmeQF-V1sz2n1K19VX6t-10" vertex="1">
          <mxGeometry x="211" y="180" width="150" height="30" as="geometry" />
        </mxCell>
        <mxCell id="go-DFvzO8IEFyl5RMDaZ-20" value="createUser.js" style="text;html=1;align=left;verticalAlign=middle;resizable=0;points=[];autosize=1;strokeColor=none;fillColor=none;fontSize=15;" parent="lmeQF-V1sz2n1K19VX6t-10" vertex="1">
          <mxGeometry x="211" y="215" width="110" height="30" as="geometry" />
        </mxCell>
        <mxCell id="go-DFvzO8IEFyl5RMDaZ-22" style="edgeStyle=orthogonalEdgeStyle;rounded=0;orthogonalLoop=1;jettySize=auto;html=1;entryX=-0.027;entryY=0.533;entryDx=0;entryDy=0;entryPerimeter=0;" parent="lmeQF-V1sz2n1K19VX6t-10" source="go-DFvzO8IEFyl5RMDaZ-17" target="go-DFvzO8IEFyl5RMDaZ-19" edge="1">
          <mxGeometry relative="1" as="geometry">
            <Array as="points">
              <mxPoint x="175" y="196" />
            </Array>
          </mxGeometry>
        </mxCell>
        <mxCell id="go-DFvzO8IEFyl5RMDaZ-23" style="edgeStyle=orthogonalEdgeStyle;rounded=0;orthogonalLoop=1;jettySize=auto;html=1;entryX=-0.009;entryY=0.633;entryDx=0;entryDy=0;entryPerimeter=0;" parent="lmeQF-V1sz2n1K19VX6t-10" source="go-DFvzO8IEFyl5RMDaZ-17" target="go-DFvzO8IEFyl5RMDaZ-20" edge="1">
          <mxGeometry relative="1" as="geometry">
            <Array as="points">
              <mxPoint x="175" y="234" />
            </Array>
          </mxGeometry>
        </mxCell>
        <mxCell id="go-DFvzO8IEFyl5RMDaZ-25" value="" style="sketch=0;pointerEvents=1;shadow=0;dashed=0;html=1;strokeColor=#006EAF;fillColor=#1ba1e2;labelPosition=center;verticalLabelPosition=bottom;verticalAlign=top;outlineConnect=0;align=center;shape=mxgraph.office.concepts.document;fontSize=15;fontColor=#ffffff;" parent="lmeQF-V1sz2n1K19VX6t-10" vertex="1">
          <mxGeometry x="348" y="183" width="20" height="24" as="geometry" />
        </mxCell>
        <mxCell id="go-DFvzO8IEFyl5RMDaZ-26" value="" style="sketch=0;pointerEvents=1;shadow=0;dashed=0;html=1;strokeColor=#006EAF;fillColor=#1ba1e2;labelPosition=center;verticalLabelPosition=bottom;verticalAlign=top;outlineConnect=0;align=center;shape=mxgraph.office.concepts.document;fontSize=15;fontColor=#ffffff;" parent="lmeQF-V1sz2n1K19VX6t-10" vertex="1">
          <mxGeometry x="314" y="218" width="20" height="24" as="geometry" />
        </mxCell>
        <mxCell id="go-DFvzO8IEFyl5RMDaZ-28" value="sqlite/" style="text;html=1;align=left;verticalAlign=middle;resizable=0;points=[];autosize=1;strokeColor=none;fillColor=none;fontSize=15;" parent="lmeQF-V1sz2n1K19VX6t-10" vertex="1">
          <mxGeometry x="141" y="249" width="60" height="30" as="geometry" />
        </mxCell>
        <mxCell id="go-DFvzO8IEFyl5RMDaZ-31" value="postgres/" style="text;html=1;align=left;verticalAlign=middle;resizable=0;points=[];autosize=1;strokeColor=none;fillColor=none;fontSize=15;" parent="lmeQF-V1sz2n1K19VX6t-10" vertex="1">
          <mxGeometry x="141" y="312" width="90" height="30" as="geometry" />
        </mxCell>
        <mxCell id="go-DFvzO8IEFyl5RMDaZ-32" value="fouille_stats.json" style="text;html=1;align=left;verticalAlign=middle;resizable=0;points=[];autosize=1;strokeColor=none;fillColor=none;fontSize=15;" parent="lmeQF-V1sz2n1K19VX6t-10" vertex="1">
          <mxGeometry x="211" y="279" width="130" height="30" as="geometry" />
        </mxCell>
        <mxCell id="go-DFvzO8IEFyl5RMDaZ-33" style="edgeStyle=orthogonalEdgeStyle;rounded=0;orthogonalLoop=1;jettySize=auto;html=1;entryX=0.017;entryY=0.5;entryDx=0;entryDy=0;entryPerimeter=0;" parent="lmeQF-V1sz2n1K19VX6t-10" source="go-DFvzO8IEFyl5RMDaZ-7" target="go-DFvzO8IEFyl5RMDaZ-28" edge="1">
          <mxGeometry relative="1" as="geometry" />
        </mxCell>
        <mxCell id="go-DFvzO8IEFyl5RMDaZ-34" style="edgeStyle=orthogonalEdgeStyle;rounded=0;orthogonalLoop=1;jettySize=auto;html=1;entryX=-0.008;entryY=0.4;entryDx=0;entryDy=0;entryPerimeter=0;" parent="lmeQF-V1sz2n1K19VX6t-10" source="go-DFvzO8IEFyl5RMDaZ-28" target="go-DFvzO8IEFyl5RMDaZ-32" edge="1">
          <mxGeometry relative="1" as="geometry">
            <Array as="points">
              <mxPoint x="170" y="291" />
            </Array>
          </mxGeometry>
        </mxCell>
        <mxCell id="go-DFvzO8IEFyl5RMDaZ-35" style="edgeStyle=orthogonalEdgeStyle;rounded=0;orthogonalLoop=1;jettySize=auto;html=1;entryX=-0.011;entryY=0.633;entryDx=0;entryDy=0;entryPerimeter=0;" parent="lmeQF-V1sz2n1K19VX6t-10" source="go-DFvzO8IEFyl5RMDaZ-7" target="go-DFvzO8IEFyl5RMDaZ-31" edge="1">
          <mxGeometry relative="1" as="geometry" />
        </mxCell>
        <mxCell id="go-DFvzO8IEFyl5RMDaZ-36" value="" style="sketch=0;pointerEvents=1;shadow=0;dashed=0;html=1;strokeColor=#006EAF;fillColor=#1ba1e2;labelPosition=center;verticalLabelPosition=bottom;verticalAlign=top;outlineConnect=0;align=center;shape=mxgraph.office.concepts.document;fontSize=15;fontColor=#ffffff;" parent="lmeQF-V1sz2n1K19VX6t-10" vertex="1">
          <mxGeometry x="336" y="282" width="20" height="24" as="geometry" />
        </mxCell>
        <mxCell id="go-DFvzO8IEFyl5RMDaZ-44" value="./src/" style="text;html=1;align=left;verticalAlign=middle;resizable=0;points=[];autosize=1;strokeColor=none;fillColor=none;fontSize=15;" parent="lmeQF-V1sz2n1K19VX6t-10" vertex="1">
          <mxGeometry x="20" y="545" width="60" height="30" as="geometry" />
        </mxCell>
        <mxCell id="go-DFvzO8IEFyl5RMDaZ-45" value="infra/" style="text;html=1;align=left;verticalAlign=middle;resizable=0;points=[];autosize=1;strokeColor=none;fillColor=none;fontSize=15;" parent="lmeQF-V1sz2n1K19VX6t-10" vertex="1">
          <mxGeometry x="80" y="585" width="60" height="30" as="geometry" />
        </mxCell>
        <mxCell id="go-DFvzO8IEFyl5RMDaZ-46" style="edgeStyle=orthogonalEdgeStyle;rounded=0;orthogonalLoop=1;jettySize=auto;html=1;entryX=-0.012;entryY=0.533;entryDx=0;entryDy=0;entryPerimeter=0;" parent="lmeQF-V1sz2n1K19VX6t-10" source="go-DFvzO8IEFyl5RMDaZ-44" target="go-DFvzO8IEFyl5RMDaZ-45" edge="1">
          <mxGeometry relative="1" as="geometry" />
        </mxCell>
        <mxCell id="go-DFvzO8IEFyl5RMDaZ-47" value="compose.yaml" style="text;html=1;align=left;verticalAlign=middle;resizable=0;points=[];autosize=1;strokeColor=none;fillColor=none;fontSize=15;" parent="lmeQF-V1sz2n1K19VX6t-10" vertex="1">
          <mxGeometry x="130" y="625" width="120" height="30" as="geometry" />
        </mxCell>
        <mxCell id="go-DFvzO8IEFyl5RMDaZ-48" value=".env" style="text;html=1;align=left;verticalAlign=middle;resizable=0;points=[];autosize=1;strokeColor=none;fillColor=none;fontSize=15;" parent="lmeQF-V1sz2n1K19VX6t-10" vertex="1">
          <mxGeometry x="130" y="665" width="50" height="30" as="geometry" />
        </mxCell>
        <mxCell id="go-DFvzO8IEFyl5RMDaZ-49" style="edgeStyle=orthogonalEdgeStyle;rounded=0;orthogonalLoop=1;jettySize=auto;html=1;entryX=0;entryY=0.533;entryDx=0;entryDy=0;entryPerimeter=0;" parent="lmeQF-V1sz2n1K19VX6t-10" source="go-DFvzO8IEFyl5RMDaZ-45" target="go-DFvzO8IEFyl5RMDaZ-47" edge="1">
          <mxGeometry relative="1" as="geometry" />
        </mxCell>
        <mxCell id="go-DFvzO8IEFyl5RMDaZ-50" style="edgeStyle=orthogonalEdgeStyle;rounded=0;orthogonalLoop=1;jettySize=auto;html=1;entryX=0;entryY=0.7;entryDx=0;entryDy=0;entryPerimeter=0;" parent="lmeQF-V1sz2n1K19VX6t-10" source="go-DFvzO8IEFyl5RMDaZ-45" target="go-DFvzO8IEFyl5RMDaZ-48" edge="1">
          <mxGeometry relative="1" as="geometry" />
        </mxCell>
        <mxCell id="go-DFvzO8IEFyl5RMDaZ-51" value="" style="sketch=0;pointerEvents=1;shadow=0;dashed=0;html=1;strokeColor=#006EAF;fillColor=#1ba1e2;labelPosition=center;verticalLabelPosition=bottom;verticalAlign=top;outlineConnect=0;align=center;shape=mxgraph.office.concepts.document;fontSize=15;fontColor=#ffffff;" parent="lmeQF-V1sz2n1K19VX6t-10" vertex="1">
          <mxGeometry x="240" y="628" width="20" height="24" as="geometry" />
        </mxCell>
        <mxCell id="go-DFvzO8IEFyl5RMDaZ-52" value="" style="sketch=0;pointerEvents=1;shadow=0;dashed=0;html=1;strokeColor=#006EAF;fillColor=#1ba1e2;labelPosition=center;verticalLabelPosition=bottom;verticalAlign=top;outlineConnect=0;align=center;shape=mxgraph.office.concepts.document;fontSize=15;fontColor=#ffffff;" parent="lmeQF-V1sz2n1K19VX6t-10" vertex="1">
          <mxGeometry x="177" y="668" width="20" height="24" as="geometry" />
        </mxCell>
        <mxCell id="go-DFvzO8IEFyl5RMDaZ-53" value="errol.ini" style="text;html=1;align=left;verticalAlign=middle;resizable=0;points=[];autosize=1;strokeColor=none;fillColor=none;fontSize=15;" parent="lmeQF-V1sz2n1K19VX6t-10" vertex="1">
          <mxGeometry x="80" y="76" width="70" height="30" as="geometry" />
        </mxCell>
        <mxCell id="go-DFvzO8IEFyl5RMDaZ-54" style="edgeStyle=orthogonalEdgeStyle;rounded=0;orthogonalLoop=1;jettySize=auto;html=1;entryX=-0.043;entryY=0.567;entryDx=0;entryDy=0;entryPerimeter=0;" parent="lmeQF-V1sz2n1K19VX6t-10" source="go-DFvzO8IEFyl5RMDaZ-6" target="go-DFvzO8IEFyl5RMDaZ-53" edge="1">
          <mxGeometry relative="1" as="geometry" />
        </mxCell>
        <mxCell id="go-DFvzO8IEFyl5RMDaZ-55" value="" style="sketch=0;pointerEvents=1;shadow=0;dashed=0;html=1;strokeColor=#006EAF;fillColor=#1ba1e2;labelPosition=center;verticalLabelPosition=bottom;verticalAlign=top;outlineConnect=0;align=center;shape=mxgraph.office.concepts.document;fontSize=15;fontColor=#ffffff;" parent="lmeQF-V1sz2n1K19VX6t-10" vertex="1">
          <mxGeometry x="140" y="79" width="20" height="24" as="geometry" />
        </mxCell>
        <mxCell id="2" value="init.sql" style="text;html=1;align=left;verticalAlign=middle;resizable=0;points=[];autosize=1;strokeColor=none;fillColor=none;fontSize=15;" vertex="1" parent="lmeQF-V1sz2n1K19VX6t-10">
          <mxGeometry x="211" y="363" width="70" height="30" as="geometry" />
        </mxCell>
        <mxCell id="3" style="edgeStyle=orthogonalEdgeStyle;rounded=0;orthogonalLoop=1;jettySize=auto;html=1;entryX=-0.008;entryY=0.533;entryDx=0;entryDy=0;entryPerimeter=0;" edge="1" parent="lmeQF-V1sz2n1K19VX6t-10" source="go-DFvzO8IEFyl5RMDaZ-31" target="2">
          <mxGeometry relative="1" as="geometry" />
        </mxCell>
        <mxCell id="4" value="" style="sketch=0;pointerEvents=1;shadow=0;dashed=0;html=1;strokeColor=#006EAF;fillColor=#1ba1e2;labelPosition=center;verticalLabelPosition=bottom;verticalAlign=top;outlineConnect=0;align=center;shape=mxgraph.office.concepts.document;fontSize=15;fontColor=#ffffff;" vertex="1" parent="lmeQF-V1sz2n1K19VX6t-10">
          <mxGeometry x="270" y="366" width="20" height="24" as="geometry" />
        </mxCell>
        <mxCell id="5" value="db_fouille.json" style="text;html=1;align=left;verticalAlign=middle;resizable=0;points=[];autosize=1;strokeColor=none;fillColor=none;fontSize=15;" vertex="1" parent="lmeQF-V1sz2n1K19VX6t-10">
          <mxGeometry x="211" y="403" width="120" height="30" as="geometry" />
        </mxCell>
        <mxCell id="6" value="" style="sketch=0;pointerEvents=1;shadow=0;dashed=0;html=1;strokeColor=#006EAF;fillColor=#1ba1e2;labelPosition=center;verticalLabelPosition=bottom;verticalAlign=top;outlineConnect=0;align=center;shape=mxgraph.office.concepts.document;fontSize=15;fontColor=#ffffff;" vertex="1" parent="lmeQF-V1sz2n1K19VX6t-10">
          <mxGeometry x="321" y="406" width="20" height="24" as="geometry" />
        </mxCell>
        <mxCell id="7" style="edgeStyle=orthogonalEdgeStyle;rounded=0;orthogonalLoop=1;jettySize=auto;html=1;entryX=-0.008;entryY=0.467;entryDx=0;entryDy=0;entryPerimeter=0;" edge="1" parent="lmeQF-V1sz2n1K19VX6t-10" source="go-DFvzO8IEFyl5RMDaZ-31" target="5">
          <mxGeometry relative="1" as="geometry" />
        </mxCell>
        <mxCell id="go-DFvzO8IEFyl5RMDaZ-5" value="d&lt;span style=&quot;background-color: initial;&quot;&gt;ocker.service&lt;/span&gt;" style="swimlane;whiteSpace=wrap;html=1;" parent="lmeQF-V1sz2n1K19VX6t-9" vertex="1">
          <mxGeometry x="20" y="41" width="480" height="265" as="geometry">
            <mxRectangle x="10" y="175" width="120" height="30" as="alternateBounds" />
          </mxGeometry>
        </mxCell>
        <mxCell id="lmeQF-V1sz2n1K19VX6t-123" style="edgeStyle=orthogonalEdgeStyle;rounded=0;orthogonalLoop=1;jettySize=auto;html=1;entryX=0;entryY=0.49;entryDx=0;entryDy=0;entryPerimeter=0;fontSize=15;" parent="go-DFvzO8IEFyl5RMDaZ-5" source="lmeQF-V1sz2n1K19VX6t-48" target="lmeQF-V1sz2n1K19VX6t-12" edge="1">
          <mxGeometry relative="1" as="geometry">
            <Array as="points">
              <mxPoint x="135.28" y="137" />
              <mxPoint x="135.28" y="91" />
            </Array>
          </mxGeometry>
        </mxCell>
        <mxCell id="lmeQF-V1sz2n1K19VX6t-124" style="edgeStyle=orthogonalEdgeStyle;rounded=0;orthogonalLoop=1;jettySize=auto;html=1;entryX=0;entryY=0.52;entryDx=0;entryDy=0;entryPerimeter=0;fontSize=15;" parent="go-DFvzO8IEFyl5RMDaZ-5" source="lmeQF-V1sz2n1K19VX6t-48" target="lmeQF-V1sz2n1K19VX6t-18" edge="1">
          <mxGeometry relative="1" as="geometry">
            <Array as="points">
              <mxPoint x="135.28" y="137" />
              <mxPoint x="135.28" y="173" />
            </Array>
          </mxGeometry>
        </mxCell>
        <mxCell id="lmeQF-V1sz2n1K19VX6t-48" value="" style="sketch=0;pointerEvents=1;shadow=0;dashed=0;html=1;strokeColor=#006EAF;fillColor=#1ba1e2;labelPosition=center;verticalLabelPosition=bottom;verticalAlign=top;outlineConnect=0;align=center;shape=mxgraph.office.concepts.application_hybrid;fontColor=#ffffff;" parent="go-DFvzO8IEFyl5RMDaZ-5" vertex="1">
          <mxGeometry x="30.78" y="115" width="51.5" height="44" as="geometry" />
        </mxCell>
        <mxCell id="lmeQF-V1sz2n1K19VX6t-133" value="TCP/27017" style="text;html=1;align=center;verticalAlign=middle;resizable=0;points=[];autosize=1;strokeColor=none;fillColor=none;fontSize=15;" parent="go-DFvzO8IEFyl5RMDaZ-5" vertex="1">
          <mxGeometry x="160.28" y="175" width="100" height="30" as="geometry" />
        </mxCell>
        <mxCell id="lmeQF-V1sz2n1K19VX6t-131" value="TCP/5432" style="text;html=1;align=center;verticalAlign=middle;resizable=0;points=[];autosize=1;strokeColor=none;fillColor=none;fontSize=15;" parent="go-DFvzO8IEFyl5RMDaZ-5" vertex="1">
          <mxGeometry x="165.28" y="94" width="90" height="30" as="geometry" />
        </mxCell>
        <mxCell id="lmeQF-V1sz2n1K19VX6t-12" value="" style="sketch=0;aspect=fixed;html=1;points=[];align=center;image;fontSize=12;image=img/lib/mscae/Container_Instances.svg;" parent="go-DFvzO8IEFyl5RMDaZ-5" vertex="1">
          <mxGeometry x="275.91999999999996" y="66" width="50" height="50" as="geometry" />
        </mxCell>
        <mxCell id="lmeQF-V1sz2n1K19VX6t-21" value="" style="sketch=0;aspect=fixed;html=1;points=[];align=center;image;fontSize=12;image=img/lib/mscae/Azure_Database_for_PostgreSQL_servers.svg;" parent="go-DFvzO8IEFyl5RMDaZ-5" vertex="1">
          <mxGeometry x="325.91999999999996" y="86" width="22.8" height="30" as="geometry" />
        </mxCell>
        <mxCell id="lmeQF-V1sz2n1K19VX6t-135" value="infra-pgdb-1" style="text;html=1;align=left;verticalAlign=middle;resizable=0;points=[];autosize=1;strokeColor=none;fillColor=none;fontSize=15;" parent="go-DFvzO8IEFyl5RMDaZ-5" vertex="1">
          <mxGeometry x="348.71999999999997" y="115" width="100" height="30" as="geometry" />
        </mxCell>
        <mxCell id="lmeQF-V1sz2n1K19VX6t-18" value="" style="sketch=0;aspect=fixed;html=1;points=[];align=center;image;fontSize=12;image=img/lib/mscae/Container_Instances.svg;" parent="go-DFvzO8IEFyl5RMDaZ-5" vertex="1">
          <mxGeometry x="275.91999999999996" y="147" width="50" height="50" as="geometry" />
        </mxCell>
        <mxCell id="lmeQF-V1sz2n1K19VX6t-20" value="" style="sketch=0;aspect=fixed;html=1;points=[];align=center;image;fontSize=12;image=img/lib/mscae/Database_General.svg;" parent="go-DFvzO8IEFyl5RMDaZ-5" vertex="1">
          <mxGeometry x="325.91999999999996" y="173.5" width="22.8" height="30" as="geometry" />
        </mxCell>
        <mxCell id="go-DFvzO8IEFyl5RMDaZ-4" value="infra-mongo-1" style="text;html=1;align=left;verticalAlign=middle;resizable=0;points=[];autosize=1;strokeColor=none;fillColor=none;fontSize=15;" parent="go-DFvzO8IEFyl5RMDaZ-5" vertex="1">
          <mxGeometry x="348.71999999999997" y="203.5" width="120" height="30" as="geometry" />
        </mxCell>
        <mxCell id="lmeQF-V1sz2n1K19VX6t-25" value="" style="sketch=0;pointerEvents=1;shadow=0;dashed=0;html=1;strokeColor=#006EAF;fillColor=#1ba1e2;labelPosition=center;verticalLabelPosition=bottom;verticalAlign=top;outlineConnect=0;align=center;shape=mxgraph.office.users.user;fontColor=#ffffff;" parent="go-DFvzO8IEFyl5RMDaZ-5" vertex="1">
          <mxGeometry x="11.280000000000001" y="46" width="46" height="50" as="geometry" />
        </mxCell>
        <mxCell id="go-DFvzO8IEFyl5RMDaZ-24" value="" style="image;sketch=0;aspect=fixed;html=1;points=[];align=center;fontSize=12;image=img/lib/mscae/Docker.svg;" parent="go-DFvzO8IEFyl5RMDaZ-5" vertex="1">
          <mxGeometry x="430" y="25" width="50" height="41" as="geometry" />
        </mxCell>
        <mxCell id="go-DFvzO8IEFyl5RMDaZ-27" value="Base de données" style="swimlane;whiteSpace=wrap;html=1;" parent="lmeQF-V1sz2n1K19VX6t-9" vertex="1">
          <mxGeometry x="20" y="331" width="480" height="429" as="geometry" />
        </mxCell>
        <mxCell id="lmeQF-V1sz2n1K19VX6t-65" style="edgeStyle=orthogonalEdgeStyle;rounded=0;orthogonalLoop=1;jettySize=auto;html=1;entryX=0.011;entryY=0.533;entryDx=0;entryDy=0;entryPerimeter=0;fontSize=15;" parent="go-DFvzO8IEFyl5RMDaZ-27" source="lmeQF-V1sz2n1K19VX6t-49" target="lmeQF-V1sz2n1K19VX6t-64" edge="1">
          <mxGeometry relative="1" as="geometry">
            <mxPoint x="121.27999999999997" y="83" as="targetPoint" />
          </mxGeometry>
        </mxCell>
        <mxCell id="lmeQF-V1sz2n1K19VX6t-118" style="edgeStyle=orthogonalEdgeStyle;rounded=0;orthogonalLoop=1;jettySize=auto;html=1;entryX=0;entryY=0.5;entryDx=0;entryDy=0;entryPerimeter=0;fontSize=15;" parent="go-DFvzO8IEFyl5RMDaZ-27" source="lmeQF-V1sz2n1K19VX6t-49" target="lmeQF-V1sz2n1K19VX6t-87" edge="1">
          <mxGeometry relative="1" as="geometry" />
        </mxCell>
        <mxCell id="lmeQF-V1sz2n1K19VX6t-49" value="./project_database/" style="text;html=1;align=left;verticalAlign=middle;resizable=0;points=[];autosize=1;strokeColor=none;fillColor=none;fontSize=15;" parent="go-DFvzO8IEFyl5RMDaZ-27" vertex="1">
          <mxGeometry x="11.279999999999973" y="32" width="150" height="30" as="geometry" />
        </mxCell>
        <mxCell id="lmeQF-V1sz2n1K19VX6t-64" value="postgres/" style="text;html=1;align=left;verticalAlign=middle;resizable=0;points=[];autosize=1;strokeColor=none;fillColor=none;fontSize=15;" parent="go-DFvzO8IEFyl5RMDaZ-27" vertex="1">
          <mxGeometry x="121.27999999999997" y="190" width="90" height="30" as="geometry" />
        </mxCell>
        <mxCell id="lmeQF-V1sz2n1K19VX6t-87" value="mongo/" style="text;html=1;align=left;verticalAlign=middle;resizable=0;points=[];autosize=1;strokeColor=none;fillColor=none;fontSize=15;" parent="go-DFvzO8IEFyl5RMDaZ-27" vertex="1">
          <mxGeometry x="121.27999999999997" y="104" width="70" height="30" as="geometry" />
        </mxCell>
        <mxCell id="go-DFvzO8IEFyl5RMDaZ-9" value="sqlite/" style="text;html=1;align=left;verticalAlign=middle;resizable=0;points=[];autosize=1;strokeColor=none;fillColor=none;fontSize=15;" parent="go-DFvzO8IEFyl5RMDaZ-27" vertex="1">
          <mxGeometry x="196.27999999999997" y="53" width="60" height="30" as="geometry" />
        </mxCell>
        <mxCell id="go-DFvzO8IEFyl5RMDaZ-10" style="edgeStyle=orthogonalEdgeStyle;rounded=0;orthogonalLoop=1;jettySize=auto;html=1;entryX=0.017;entryY=0.5;entryDx=0;entryDy=0;entryPerimeter=0;fontSize=15;exitX=0.5;exitY=1.2;exitDx=0;exitDy=0;exitPerimeter=0;" parent="go-DFvzO8IEFyl5RMDaZ-27" source="lmeQF-V1sz2n1K19VX6t-49" target="go-DFvzO8IEFyl5RMDaZ-9" edge="1">
          <mxGeometry relative="1" as="geometry">
            <mxPoint x="96.27999999999997" y="72" as="sourcePoint" />
            <mxPoint x="131.27999999999997" y="130" as="targetPoint" />
          </mxGeometry>
        </mxCell>
        <mxCell id="go-DFvzO8IEFyl5RMDaZ-12" value="metrics.db" style="text;html=1;align=left;verticalAlign=middle;resizable=0;points=[];autosize=1;strokeColor=none;fillColor=none;fontSize=15;" parent="go-DFvzO8IEFyl5RMDaZ-27" vertex="1">
          <mxGeometry x="255.27999999999997" y="87" width="90" height="30" as="geometry" />
        </mxCell>
        <mxCell id="go-DFvzO8IEFyl5RMDaZ-16" style="edgeStyle=orthogonalEdgeStyle;rounded=0;orthogonalLoop=1;jettySize=auto;html=1;entryX=0;entryY=0.533;entryDx=0;entryDy=0;entryPerimeter=0;" parent="go-DFvzO8IEFyl5RMDaZ-27" source="go-DFvzO8IEFyl5RMDaZ-9" target="go-DFvzO8IEFyl5RMDaZ-12" edge="1">
          <mxGeometry relative="1" as="geometry" />
        </mxCell>
        <mxCell id="lmeQF-V1sz2n1K19VX6t-83" value="" style="sketch=0;pointerEvents=1;shadow=0;dashed=0;html=1;strokeColor=#006EAF;fillColor=#1ba1e2;labelPosition=center;verticalLabelPosition=bottom;verticalAlign=top;outlineConnect=0;align=center;shape=mxgraph.office.concepts.document;fontSize=15;fontColor=#ffffff;" parent="go-DFvzO8IEFyl5RMDaZ-27" vertex="1">
          <mxGeometry x="339.28" y="90" width="20" height="24" as="geometry" />
        </mxCell>
        <mxCell id="go-DFvzO8IEFyl5RMDaZ-37" value="errol" style="text;html=1;align=left;verticalAlign=middle;resizable=0;points=[];autosize=1;strokeColor=none;fillColor=none;fontSize=15;" parent="go-DFvzO8IEFyl5RMDaZ-27" vertex="1">
          <mxGeometry x="189.27999999999997" y="138" width="50" height="30" as="geometry" />
        </mxCell>
        <mxCell id="go-DFvzO8IEFyl5RMDaZ-38" style="edgeStyle=orthogonalEdgeStyle;rounded=0;orthogonalLoop=1;jettySize=auto;html=1;entryX=-0.026;entryY=0.533;entryDx=0;entryDy=0;entryPerimeter=0;" parent="go-DFvzO8IEFyl5RMDaZ-27" source="lmeQF-V1sz2n1K19VX6t-87" target="go-DFvzO8IEFyl5RMDaZ-37" edge="1">
          <mxGeometry relative="1" as="geometry" />
        </mxCell>
        <mxCell id="go-DFvzO8IEFyl5RMDaZ-39" value="spamassassin" style="text;html=1;align=left;verticalAlign=middle;resizable=0;points=[];autosize=1;strokeColor=none;fillColor=none;fontSize=15;" parent="go-DFvzO8IEFyl5RMDaZ-27" vertex="1">
          <mxGeometry x="262.28" y="168" width="120" height="30" as="geometry" />
        </mxCell>
        <mxCell id="go-DFvzO8IEFyl5RMDaZ-40" style="edgeStyle=orthogonalEdgeStyle;rounded=0;orthogonalLoop=1;jettySize=auto;html=1;entryX=0.006;entryY=0.467;entryDx=0;entryDy=0;entryPerimeter=0;exitX=0.474;exitY=1;exitDx=0;exitDy=0;exitPerimeter=0;" parent="go-DFvzO8IEFyl5RMDaZ-27" source="go-DFvzO8IEFyl5RMDaZ-37" target="go-DFvzO8IEFyl5RMDaZ-39" edge="1">
          <mxGeometry relative="1" as="geometry">
            <Array as="points">
              <mxPoint x="213" y="182" />
            </Array>
          </mxGeometry>
        </mxCell>
        <mxCell id="go-DFvzO8IEFyl5RMDaZ-42" value="" style="sketch=0;aspect=fixed;html=1;points=[];align=center;image;fontSize=12;image=img/lib/mscae/Database_General.svg;" parent="go-DFvzO8IEFyl5RMDaZ-27" vertex="1">
          <mxGeometry x="233.27999999999997" y="138" width="22.8" height="30" as="geometry" />
        </mxCell>
        <mxCell id="8" value="errol" style="text;html=1;align=left;verticalAlign=middle;resizable=0;points=[];autosize=1;strokeColor=none;fillColor=none;fontSize=15;" vertex="1" parent="go-DFvzO8IEFyl5RMDaZ-27">
          <mxGeometry x="195.27999999999997" y="224" width="50" height="30" as="geometry" />
        </mxCell>
        <mxCell id="11" style="edgeStyle=orthogonalEdgeStyle;rounded=0;orthogonalLoop=1;jettySize=auto;html=1;entryX=-0.006;entryY=0.533;entryDx=0;entryDy=0;entryPerimeter=0;exitX=0.419;exitY=1.067;exitDx=0;exitDy=0;exitPerimeter=0;" edge="1" parent="go-DFvzO8IEFyl5RMDaZ-27" source="lmeQF-V1sz2n1K19VX6t-64" target="8">
          <mxGeometry relative="1" as="geometry" />
        </mxCell>
        <mxCell id="14" value="" style="sketch=0;aspect=fixed;html=1;points=[];align=center;image;fontSize=12;image=img/lib/mscae/Azure_Database_for_PostgreSQL_servers.svg;" vertex="1" parent="go-DFvzO8IEFyl5RMDaZ-27">
          <mxGeometry x="232.47999999999996" y="224" width="22.8" height="30" as="geometry" />
        </mxCell>
        <mxCell id="15" value="categories&lt;br&gt;messages&lt;br&gt;liens" style="text;html=1;align=left;verticalAlign=middle;resizable=0;points=[];autosize=1;strokeColor=none;fillColor=none;fontSize=15;" vertex="1" parent="go-DFvzO8IEFyl5RMDaZ-27">
          <mxGeometry x="262.28" y="260" width="90" height="70" as="geometry" />
        </mxCell>
        <mxCell id="16" style="edgeStyle=orthogonalEdgeStyle;rounded=0;orthogonalLoop=1;jettySize=auto;html=1;entryX=-0.003;entryY=0.514;entryDx=0;entryDy=0;entryPerimeter=0;exitX=0.494;exitY=1.067;exitDx=0;exitDy=0;exitPerimeter=0;" edge="1" parent="go-DFvzO8IEFyl5RMDaZ-27" source="8" target="15">
          <mxGeometry relative="1" as="geometry">
            <Array as="points">
              <mxPoint x="220" y="296" />
            </Array>
          </mxGeometry>
        </mxCell>
      </root>
    </mxGraphModel>
  </diagram>
</mxfile>
